# xmcd CD database file generated by LOLA_Freedb v0.9beta0
# 
# Track frame offsets:
#      150
#      13069
#      24968
#      37048
#      47393
#      59877
#      72852
#      82635
#      91416
#      105843
#      118454
#      129250
# 
# Disc length: 1900 seconds
# 
# Revision: 0 
# Processed by: cddbd v1.5.2PL0 Copyright (c) Steve Scherf et al.
# Submitted via: LOLA_Freedb v0.9beta0
# 
DISCID=92076a0c
DTITLE=Billie Jo Spears - The Cheating Kind
DYEAR=2005
DGENRE=
TTITLE0=Billie Jo Spears - Dallas
TTITLE1=Billie Jo Spears - The Want In Me
TTITLE2=Billie Jo Spears - Look What They Done To My Song Daddy
TTITLE3=Billie Jo Spears - It Makes No Difference Now
TTITLE4=Billie Jo Spears - Sunshine
TTITLE5=Billie Jo Spears - He`s On The Run Again
TTITLE6=Billie Jo Spears - Danny
TTITLE7=Billie Jo Spears - You`re My Man
TTITLE8=Billie Jo Spears - I`ll Never Be Free
TTITLE9=Billie Jo Spears - The Cheating Kind
TTITLE10=Billie Jo Spears - I`m So Lonesome I Could Cry
TTITLE11=Billie Jo Spears - Fever
EXTD=
EXTT0=
EXTT1=
EXTT2=
EXTT3=
EXTT4=
EXTT5=
EXTT6=
EXTT7=
EXTT8=
EXTT9=
EXTT10=
EXTT11=
PLAYORDER=
